<svg fill="none"
                viewBox="0 0 32 32"
                xmlns="http://www.w3.org/2000/svg">
                <circle cx="16" cy="16" r="16" fill="white" />
                <path 
                d="M14.7451 6.54367C15.6047 5.81878 16.8617 5.81878 17.7213 6.54368L24.6462 12.3833C25.1662 12.8219 25.4664 13.4676 25.4664 14.1479V24.2047C25.4664 25.1962 24.6626 26 23.6711 26H20.0804C19.0888 26 18.285 25.1962 18.285 24.2047V18.5621C18.285 18.4206 18.1702 18.3057 18.0286 18.3057H14.4379C14.2962 18.3057 14.1814 18.4206 14.1814 18.5621V24.2047C14.1814 25.1962 13.3776 26 12.386 26H8.79535C7.8038 26 7 25.1962 7 24.2047V14.1479C7 13.4676 7.30013 12.8219 7.82024 12.3833L14.7451 6.54367ZM16.7292 7.72009C16.4427 7.47846 16.0237 7.47846 15.7372 7.72009L8.81228 13.5597C8.63892 13.7059 8.53887 13.9211 8.53887 14.1479V24.2047C8.53887 24.3463 8.6537 24.4611 8.79535 24.4611H12.386C12.5277 24.4611 12.6425 24.3463 12.6425 24.2047V18.5621C12.6425 17.5706 13.4463 16.7668 14.4379 16.7668H18.0286C19.0201 16.7668 19.8239 17.5706 19.8239 18.5621V24.2047C19.8239 24.3463 19.9387 24.4611 20.0804 24.4611H23.6711C23.8128 24.4611 23.9276 24.3463 23.9276 24.2047V14.1479C23.9276 13.9211 23.8275 13.7059 23.6541 13.5597L16.7292 7.72009Z" 
                fill="#191414" />
            </svg>