<svg fill="none"
                viewBox="0 0 32 32"
                xmlns="http://www.w3.org/2000/svg">
                <circle cx="16" cy="16" r="16" fill="white" />
                <g clipPath="url(#clip0_15_681)">
                    <path d="M16 25.4167C21.2007 25.4167 25.4167 21.2007 25.4167 16C25.4167 10.7993 21.2007 6.58334 16 6.58334C10.7993 6.58334 6.58333 10.7993 6.58333 16C6.58333 21.2007 10.7993 25.4167 16 25.4167Z" stroke="#191414" stroke-width="1.5" stroke-miterlimit="10" stroke-linecap="round" stroke-linejoin="round" />
                    <path d="M16 18.4167C13.0833 18.4167 10.5833 20.0834 9.33333 22.5834C11 24.3334 13.4167 25.3334 16 25.3334C18.5833 25.3334 21 24.25 22.6667 22.5834C21.4167 20.1667 18.9167 18.4167 16 18.4167Z" stroke="#191414" stroke-width="1.5" stroke-miterlimit="10" stroke-linecap="round" stroke-linejoin="round" />
                    <path d="M16 16.25C17.6569 16.25 19 14.9069 19 13.25C19 11.5931 17.6569 10.25 16 10.25C14.3431 10.25 13 11.5931 13 13.25C13 14.9069 14.3431 16.25 16 16.25Z" stroke="#191414" stroke-width="1.5" stroke-miterlimit="10" stroke-linecap="round" stroke-linejoin="round" />
                </g>
                <defs>
                    <clipPath id="clip0_15_681">
                        <rect width="20" height="20" fill="white" transform="translate(6 6)" />
                    </clipPath>
                </defs>
            </svg>